<mxfile host="65bd71144e">
    <diagram id="hoTehJIOkmPPkSe_zNrV" name="Page-1">
        <mxGraphModel dx="978" dy="691" grid="1" gridSize="10" guides="1" tooltips="1" connect="1" arrows="1" fold="1" page="1" pageScale="1" pageWidth="2000" pageHeight="1400" math="0" shadow="0">
            <root>
                <mxCell id="0"/>
                <mxCell id="1" parent="0"/>
                <mxCell id="0-BeP1yOpfPGf2DisQgn-61" value="Manifest &quot;Transaction&quot;" style="rounded=0;whiteSpace=wrap;html=1;align=left;verticalAlign=top;fontStyle=1;spacingLeft=6;fillColor=#dae8fc;strokeColor=#6c8ebf;" parent="1" vertex="1">
                    <mxGeometry x="1260" y="40" width="770" height="350" as="geometry"/>
                </mxCell>
                <mxCell id="0-BeP1yOpfPGf2DisQgn-63" value="Publish" style="whiteSpace=wrap;html=1;rounded=0;verticalAlign=top;fillColor=#ffe6cc;strokeColor=#d79b00;" parent="1" vertex="1">
                    <mxGeometry x="1660" y="70" width="200" height="290" as="geometry"/>
                </mxCell>
                <mxCell id="0-BeP1yOpfPGf2DisQgn-62" value="Generate &amp;amp; Write Changelogs" style="whiteSpace=wrap;html=1;rounded=0;verticalAlign=top;fillColor=#ffe6cc;strokeColor=#d79b00;" parent="1" vertex="1">
                    <mxGeometry x="1420" y="70" width="200" height="225" as="geometry"/>
                </mxCell>
                <mxCell id="0-BeP1yOpfPGf2DisQgn-59" value="Resolve versions from strategies" style="rounded=0;whiteSpace=wrap;html=1;align=left;verticalAlign=top;fontStyle=1;spacingLeft=6;fillColor=#dae8fc;strokeColor=#6c8ebf;" parent="1" vertex="1">
                    <mxGeometry x="1040" y="40" width="210" height="350" as="geometry"/>
                </mxCell>
                <mxCell id="0-BeP1yOpfPGf2DisQgn-44" value="Resolve version strategies from changes" style="rounded=0;whiteSpace=wrap;html=1;align=left;verticalAlign=top;fontStyle=1;spacingLeft=6;fillColor=#dae8fc;strokeColor=#6c8ebf;" parent="1" vertex="1">
                    <mxGeometry x="415" y="40" width="615" height="350" as="geometry"/>
                </mxCell>
                <mxCell id="0-BeP1yOpfPGf2DisQgn-43" value="Project state" style="rounded=0;whiteSpace=wrap;html=1;align=left;verticalAlign=top;fontStyle=1;spacingLeft=6;fillColor=#dae8fc;strokeColor=#6c8ebf;" parent="1" vertex="1">
                    <mxGeometry x="245" y="40" width="160" height="350" as="geometry"/>
                </mxCell>
                <mxCell id="0-BeP1yOpfPGf2DisQgn-42" value="Project initialization" style="rounded=0;whiteSpace=wrap;html=1;align=left;verticalAlign=top;fontStyle=1;spacingLeft=6;fillColor=#dae8fc;strokeColor=#6c8ebf;" parent="1" vertex="1">
                    <mxGeometry x="40" y="40" width="190" height="350" as="geometry"/>
                </mxCell>
                <mxCell id="0-BeP1yOpfPGf2DisQgn-7" value="" style="edgeStyle=orthogonalEdgeStyle;rounded=0;orthogonalLoop=1;jettySize=auto;html=1;" parent="1" source="0-BeP1yOpfPGf2DisQgn-5" target="0-BeP1yOpfPGf2DisQgn-6" edge="1">
                    <mxGeometry relative="1" as="geometry"/>
                </mxCell>
                <mxCell id="0-BeP1yOpfPGf2DisQgn-5" value="Load Monoweave Configuration with Defaults" style="rounded=0;whiteSpace=wrap;html=1;" parent="1" vertex="1">
                    <mxGeometry x="75" y="90" width="120" height="70" as="geometry"/>
                </mxCell>
                <mxCell id="0-BeP1yOpfPGf2DisQgn-9" value="" style="edgeStyle=orthogonalEdgeStyle;rounded=0;orthogonalLoop=1;jettySize=auto;html=1;" parent="1" source="0-BeP1yOpfPGf2DisQgn-6" target="0-BeP1yOpfPGf2DisQgn-8" edge="1">
                    <mxGeometry relative="1" as="geometry"/>
                </mxCell>
                <mxCell id="0-BeP1yOpfPGf2DisQgn-6" value="Load Yarn Project&lt;br&gt;" style="whiteSpace=wrap;html=1;rounded=0;" parent="1" vertex="1">
                    <mxGeometry x="75" y="200" width="120" height="60" as="geometry"/>
                </mxCell>
                <mxCell id="0-BeP1yOpfPGf2DisQgn-11" value="" style="edgeStyle=orthogonalEdgeStyle;rounded=1;orthogonalLoop=1;jettySize=auto;html=1;" parent="1" source="0-BeP1yOpfPGf2DisQgn-8" target="0-BeP1yOpfPGf2DisQgn-10" edge="1">
                    <mxGeometry relative="1" as="geometry"/>
                </mxCell>
                <mxCell id="0-BeP1yOpfPGf2DisQgn-8" value="Initialize Plugins" style="whiteSpace=wrap;html=1;rounded=0;" parent="1" vertex="1">
                    <mxGeometry x="75" y="300" width="120" height="60" as="geometry"/>
                </mxCell>
                <mxCell id="0-BeP1yOpfPGf2DisQgn-52" style="edgeStyle=orthogonalEdgeStyle;rounded=1;orthogonalLoop=1;jettySize=auto;html=1;exitX=1;exitY=0.5;exitDx=0;exitDy=0;entryX=0;entryY=0.5;entryDx=0;entryDy=0;" parent="1" source="0-BeP1yOpfPGf2DisQgn-10" target="0-BeP1yOpfPGf2DisQgn-45" edge="1">
                    <mxGeometry relative="1" as="geometry"/>
                </mxCell>
                <mxCell id="0-BeP1yOpfPGf2DisQgn-10" value="Fetch Published Package Versions" style="whiteSpace=wrap;html=1;rounded=0;" parent="1" vertex="1">
                    <mxGeometry x="265" y="200" width="120" height="60" as="geometry"/>
                </mxCell>
                <mxCell id="0-BeP1yOpfPGf2DisQgn-67" style="edgeStyle=orthogonalEdgeStyle;rounded=1;orthogonalLoop=1;jettySize=auto;html=1;exitX=1;exitY=0.5;exitDx=0;exitDy=0;entryX=0;entryY=0.5;entryDx=0;entryDy=0;" parent="1" source="0-BeP1yOpfPGf2DisQgn-16" target="0-BeP1yOpfPGf2DisQgn-18" edge="1">
                    <mxGeometry relative="1" as="geometry">
                        <Array as="points">
                            <mxPoint x="1000" y="330"/>
                            <mxPoint x="1000" y="115"/>
                        </Array>
                    </mxGeometry>
                </mxCell>
                <mxCell id="0-BeP1yOpfPGf2DisQgn-16" value="Merge Version Strategies (i.e. groups)" style="whiteSpace=wrap;html=1;rounded=0;" parent="1" vertex="1">
                    <mxGeometry x="817" y="300" width="120" height="60" as="geometry"/>
                </mxCell>
                <mxCell id="7" value="" style="edgeStyle=none;html=1;" edge="1" parent="1" source="0-BeP1yOpfPGf2DisQgn-18" target="6">
                    <mxGeometry relative="1" as="geometry"/>
                </mxCell>
                <mxCell id="0-BeP1yOpfPGf2DisQgn-18" value="Determine New Versions" style="whiteSpace=wrap;html=1;rounded=0;" parent="1" vertex="1">
                    <mxGeometry x="1085" y="85" width="120" height="60" as="geometry"/>
                </mxCell>
                <mxCell id="0-BeP1yOpfPGf2DisQgn-29" value="" style="edgeStyle=orthogonalEdgeStyle;rounded=0;orthogonalLoop=1;jettySize=auto;html=1;" parent="1" edge="1">
                    <mxGeometry relative="1" as="geometry">
                        <mxPoint x="2000" y="675" as="sourcePoint"/>
                    </mxGeometry>
                </mxCell>
                <mxCell id="22" style="edgeStyle=elbowEdgeStyle;rounded=1;html=1;exitX=0.5;exitY=1;exitDx=0;exitDy=0;entryX=0.5;entryY=0;entryDx=0;entryDy=0;" edge="1" parent="1" source="0-BeP1yOpfPGf2DisQgn-30" target="21">
                    <mxGeometry relative="1" as="geometry"/>
                </mxCell>
                <mxCell id="0-BeP1yOpfPGf2DisQgn-30" value="Update Changelog Files" style="whiteSpace=wrap;html=1;rounded=0;" parent="1" vertex="1">
                    <mxGeometry x="1460" y="220" width="120" height="60" as="geometry"/>
                </mxCell>
                <mxCell id="0-BeP1yOpfPGf2DisQgn-35" value="" style="edgeStyle=orthogonalEdgeStyle;rounded=0;orthogonalLoop=1;jettySize=auto;html=1;" parent="1" source="0-BeP1yOpfPGf2DisQgn-32" target="0-BeP1yOpfPGf2DisQgn-34" edge="1">
                    <mxGeometry relative="1" as="geometry"/>
                </mxCell>
                <mxCell id="0-BeP1yOpfPGf2DisQgn-32" value="Create Publish Commit" style="whiteSpace=wrap;html=1;rounded=0;" parent="1" vertex="1">
                    <mxGeometry x="1700" y="110" width="120" height="60" as="geometry"/>
                </mxCell>
                <mxCell id="0-BeP1yOpfPGf2DisQgn-37" value="" style="edgeStyle=orthogonalEdgeStyle;rounded=0;orthogonalLoop=1;jettySize=auto;html=1;" parent="1" source="0-BeP1yOpfPGf2DisQgn-34" target="0-BeP1yOpfPGf2DisQgn-36" edge="1">
                    <mxGeometry relative="1" as="geometry"/>
                </mxCell>
                <mxCell id="0-BeP1yOpfPGf2DisQgn-34" value="Publish Packages to Registry&lt;br&gt;&lt;br&gt;&lt;i&gt;(manifest lifecycle scripts executed)&lt;/i&gt;" style="whiteSpace=wrap;html=1;rounded=0;" parent="1" vertex="1">
                    <mxGeometry x="1670" y="190" width="180" height="80" as="geometry"/>
                </mxCell>
                <mxCell id="0-BeP1yOpfPGf2DisQgn-39" value="" style="edgeStyle=orthogonalEdgeStyle;rounded=1;orthogonalLoop=1;jettySize=auto;html=1;" parent="1" source="0-BeP1yOpfPGf2DisQgn-36" target="0-BeP1yOpfPGf2DisQgn-38" edge="1">
                    <mxGeometry relative="1" as="geometry"/>
                </mxCell>
                <mxCell id="0-BeP1yOpfPGf2DisQgn-36" value="Push Git Commit &amp;amp; Tags" style="whiteSpace=wrap;html=1;rounded=0;" parent="1" vertex="1">
                    <mxGeometry x="1700" y="290" width="120" height="60" as="geometry"/>
                </mxCell>
                <mxCell id="0-BeP1yOpfPGf2DisQgn-38" value="Plugin: Execute Release Hooks" style="whiteSpace=wrap;html=1;rounded=0;" parent="1" vertex="1">
                    <mxGeometry x="1890" y="180" width="120" height="60" as="geometry"/>
                </mxCell>
                <mxCell id="0-BeP1yOpfPGf2DisQgn-56" style="edgeStyle=orthogonalEdgeStyle;rounded=1;orthogonalLoop=1;jettySize=auto;html=1;exitX=1;exitY=0.5;exitDx=0;exitDy=0;entryX=0;entryY=0.5;entryDx=0;entryDy=0;" parent="1" source="0-BeP1yOpfPGf2DisQgn-45" target="0-BeP1yOpfPGf2DisQgn-49" edge="1">
                    <mxGeometry relative="1" as="geometry">
                        <Array as="points">
                            <mxPoint x="720" y="230"/>
                            <mxPoint x="760" y="230"/>
                            <mxPoint x="760" y="180"/>
                        </Array>
                    </mxGeometry>
                </mxCell>
                <mxCell id="0-BeP1yOpfPGf2DisQgn-45" value="Resolve Explicit Version Strategies" style="whiteSpace=wrap;html=1;rounded=0;verticalAlign=top;fillColor=#ffe6cc;strokeColor=#d79b00;" parent="1" vertex="1">
                    <mxGeometry x="435" y="70" width="315" height="305" as="geometry"/>
                </mxCell>
                <mxCell id="5" value="Manual Mode" style="whiteSpace=wrap;html=1;fillColor=#f5f5f5;align=left;verticalAlign=top;spacing=0;spacingLeft=4;fontColor=#333333;strokeColor=#666666;" vertex="1" parent="1">
                    <mxGeometry x="600" y="100" width="140" height="260" as="geometry"/>
                </mxCell>
                <mxCell id="4" value="Automatic Mode" style="whiteSpace=wrap;html=1;fillColor=#f5f5f5;align=left;verticalAlign=top;spacing=0;spacingLeft=4;fontColor=#333333;strokeColor=#666666;" vertex="1" parent="1">
                    <mxGeometry x="450" y="100" width="140" height="260" as="geometry"/>
                </mxCell>
                <mxCell id="0-BeP1yOpfPGf2DisQgn-53" style="edgeStyle=orthogonalEdgeStyle;rounded=0;orthogonalLoop=1;jettySize=auto;html=1;exitX=0.5;exitY=1;exitDx=0;exitDy=0;entryX=0.5;entryY=0;entryDx=0;entryDy=0;" parent="1" source="0-BeP1yOpfPGf2DisQgn-46" target="0-BeP1yOpfPGf2DisQgn-47" edge="1">
                    <mxGeometry relative="1" as="geometry"/>
                </mxCell>
                <mxCell id="0-BeP1yOpfPGf2DisQgn-46" value="Read Commit Messages" style="rounded=0;whiteSpace=wrap;html=1;align=center;" parent="1" vertex="1">
                    <mxGeometry x="460" y="127.5" width="120" height="60" as="geometry"/>
                </mxCell>
                <mxCell id="0-BeP1yOpfPGf2DisQgn-54" style="edgeStyle=orthogonalEdgeStyle;rounded=0;orthogonalLoop=1;jettySize=auto;html=1;exitX=0.5;exitY=1;exitDx=0;exitDy=0;entryX=0.5;entryY=0;entryDx=0;entryDy=0;" parent="1" source="0-BeP1yOpfPGf2DisQgn-47" target="0-BeP1yOpfPGf2DisQgn-48" edge="1">
                    <mxGeometry relative="1" as="geometry"/>
                </mxCell>
                <mxCell id="0-BeP1yOpfPGf2DisQgn-47" value="Pipe Through Conventional Changelog Config" style="whiteSpace=wrap;html=1;rounded=0;" parent="1" vertex="1">
                    <mxGeometry x="460" y="207.5" width="120" height="60" as="geometry"/>
                </mxCell>
                <mxCell id="0-BeP1yOpfPGf2DisQgn-48" value="Version Strategy Determiner" style="whiteSpace=wrap;html=1;rounded=0;" parent="1" vertex="1">
                    <mxGeometry x="460" y="292.5" width="120" height="60" as="geometry"/>
                </mxCell>
                <mxCell id="0-BeP1yOpfPGf2DisQgn-58" style="edgeStyle=orthogonalEdgeStyle;rounded=0;orthogonalLoop=1;jettySize=auto;html=1;exitX=0.5;exitY=1;exitDx=0;exitDy=0;entryX=0.5;entryY=0;entryDx=0;entryDy=0;" parent="1" source="0-BeP1yOpfPGf2DisQgn-49" target="0-BeP1yOpfPGf2DisQgn-16" edge="1">
                    <mxGeometry relative="1" as="geometry"/>
                </mxCell>
                <mxCell id="0-BeP1yOpfPGf2DisQgn-49" value="Resolve Implicit Version Strategies" style="whiteSpace=wrap;html=1;rounded=0;verticalAlign=top;fillColor=#ffe6cc;strokeColor=#d79b00;" parent="1" vertex="1">
                    <mxGeometry x="777" y="85" width="200" height="190" as="geometry"/>
                </mxCell>
                <mxCell id="0-BeP1yOpfPGf2DisQgn-57" style="edgeStyle=orthogonalEdgeStyle;rounded=0;orthogonalLoop=1;jettySize=auto;html=1;exitX=0.5;exitY=1;exitDx=0;exitDy=0;entryX=0.5;entryY=0;entryDx=0;entryDy=0;" parent="1" source="0-BeP1yOpfPGf2DisQgn-50" target="0-BeP1yOpfPGf2DisQgn-51" edge="1">
                    <mxGeometry relative="1" as="geometry"/>
                </mxCell>
                <mxCell id="0-BeP1yOpfPGf2DisQgn-50" value="Determine Dependents" style="rounded=0;whiteSpace=wrap;html=1;align=center;" parent="1" vertex="1">
                    <mxGeometry x="817" y="120" width="120" height="60" as="geometry"/>
                </mxCell>
                <mxCell id="0-BeP1yOpfPGf2DisQgn-51" value="Propagate Version Bumps" style="whiteSpace=wrap;html=1;rounded=0;" parent="1" vertex="1">
                    <mxGeometry x="817" y="200" width="120" height="60" as="geometry"/>
                </mxCell>
                <mxCell id="0-BeP1yOpfPGf2DisQgn-69" style="edgeStyle=orthogonalEdgeStyle;rounded=0;orthogonalLoop=1;jettySize=auto;html=1;exitX=0.5;exitY=1;exitDx=0;exitDy=0;entryX=0.5;entryY=0;entryDx=0;entryDy=0;" parent="1" source="0-BeP1yOpfPGf2DisQgn-68" target="0-BeP1yOpfPGf2DisQgn-30" edge="1">
                    <mxGeometry relative="1" as="geometry"/>
                </mxCell>
                <mxCell id="0-BeP1yOpfPGf2DisQgn-68" value="Fetch Latest Changelogs From Git Remote" style="whiteSpace=wrap;html=1;rounded=0;" parent="1" vertex="1">
                    <mxGeometry x="1460" y="130" width="120" height="60" as="geometry"/>
                </mxCell>
                <mxCell id="2" value="Read Version Files" style="whiteSpace=wrap;html=1;rounded=0;" vertex="1" parent="1">
                    <mxGeometry x="610" y="207.5" width="120" height="60" as="geometry"/>
                </mxCell>
                <mxCell id="10" value="" style="edgeStyle=none;html=1;" edge="1" parent="1" source="6" target="9">
                    <mxGeometry relative="1" as="geometry"/>
                </mxCell>
                <mxCell id="6" value="Determine Git Tags" style="whiteSpace=wrap;html=1;rounded=0;" vertex="1" parent="1">
                    <mxGeometry x="1085" y="180" width="120" height="60" as="geometry"/>
                </mxCell>
                <mxCell id="17" style="edgeStyle=orthogonalEdgeStyle;html=1;exitX=1;exitY=0.5;exitDx=0;exitDy=0;entryX=0;entryY=0.5;entryDx=0;entryDy=0;" edge="1" parent="1" source="9" target="15">
                    <mxGeometry relative="1" as="geometry">
                        <Array as="points">
                            <mxPoint x="1230" y="310"/>
                            <mxPoint x="1230" y="138"/>
                        </Array>
                    </mxGeometry>
                </mxCell>
                <mxCell id="9" value="Generate &amp;amp; Write Changeset" style="whiteSpace=wrap;html=1;rounded=0;" vertex="1" parent="1">
                    <mxGeometry x="1085" y="280" width="120" height="60" as="geometry"/>
                </mxCell>
                <mxCell id="19" style="edgeStyle=elbowEdgeStyle;rounded=1;html=1;exitX=0.5;exitY=1;exitDx=0;exitDy=0;entryX=0.5;entryY=0;entryDx=0;entryDy=0;" edge="1" parent="1" source="15" target="18">
                    <mxGeometry relative="1" as="geometry"/>
                </mxCell>
                <mxCell id="15" value="Patch Package Manifests&lt;br&gt;&lt;br&gt;(i.e. update package.json files with new versions)" style="whiteSpace=wrap;html=1;rounded=0;" vertex="1" parent="1">
                    <mxGeometry x="1280" y="85" width="120" height="105" as="geometry"/>
                </mxCell>
                <mxCell id="20" style="edgeStyle=elbowEdgeStyle;rounded=1;html=1;entryX=0;entryY=0.5;entryDx=0;entryDy=0;" edge="1" parent="1" source="18" target="0-BeP1yOpfPGf2DisQgn-68">
                    <mxGeometry relative="1" as="geometry"/>
                </mxCell>
                <mxCell id="18" value="Re-install Project" style="whiteSpace=wrap;html=1;rounded=0;" vertex="1" parent="1">
                    <mxGeometry x="1280" y="225" width="120" height="60" as="geometry"/>
                </mxCell>
                <mxCell id="23" style="edgeStyle=elbowEdgeStyle;rounded=1;html=1;exitX=1;exitY=0.5;exitDx=0;exitDy=0;entryX=0;entryY=0.5;entryDx=0;entryDy=0;" edge="1" parent="1" source="21" target="0-BeP1yOpfPGf2DisQgn-32">
                    <mxGeometry relative="1" as="geometry"/>
                </mxCell>
                <mxCell id="21" value="Remove Used Version Files" style="whiteSpace=wrap;html=1;rounded=0;" vertex="1" parent="1">
                    <mxGeometry x="1460" y="320" width="120" height="60" as="geometry"/>
                </mxCell>
            </root>
        </mxGraphModel>
    </diagram>
</mxfile>
